<mxfile host="app.diagrams.net" modified="2021-07-14T12:48:05.984Z" agent="5.0 (Macintosh; Intel Mac OS X 10_15_7) AppleWebKit/537.36 (KHTML, like Gecko) Chrome/91.0.4472.114 Safari/537.36" etag="0uIt0JPWqg3YV3zl1pBZ" version="14.8.6" type="github">
  <diagram id="vyCGWAUfdSxSIY0ACXKW" name="Page-1">
    <mxGraphModel dx="1666" dy="869" grid="1" gridSize="10" guides="1" tooltips="1" connect="1" arrows="1" fold="1" page="1" pageScale="1" pageWidth="850" pageHeight="1100" math="0" shadow="0">
      <root>
        <mxCell id="0" />
        <mxCell id="1" parent="0" />
        <mxCell id="cPcXINQH9cM9ImpzZI84-1" value="Vertical Container" style="swimlane;" vertex="1" parent="1">
          <mxGeometry x="110" y="50" width="610" height="810" as="geometry" />
        </mxCell>
      </root>
    </mxGraphModel>
  </diagram>
</mxfile>
